<?xml version="1.0" encoding="UTF-8" standalone="no"?>
<!-- Created with Inkscape (http://www.inkscape.org/) -->

<svg
   xmlns:dc="http://purl.org/dc/elements/1.1/"
   xmlns:cc="http://creativecommons.org/ns#"
   xmlns:rdf="http://www.w3.org/1999/02/22-rdf-syntax-ns#"
   xmlns:svg="http://www.w3.org/2000/svg"
   xmlns="http://www.w3.org/2000/svg"
   xmlns:sodipodi="http://sodipodi.sourceforge.net/DTD/sodipodi-0.dtd"
   xmlns:inkscape="http://www.inkscape.org/namespaces/inkscape"
   width="125.53657mm"
   height="176.85292mm"
   viewBox="0 0 125.53657 176.85292"
   version="1.1"
   id="svg8"
   sodipodi:docname="tomato5.svg"
   inkscape:version="0.92.5 (2060ec1f9f, 2020-04-08)">
  <defs
     id="defs2" />
  <sodipodi:namedview
     id="base"
     pagecolor="#ffffff"
     bordercolor="#666666"
     borderopacity="1.0"
     inkscape:pageopacity="0.0"
     inkscape:pageshadow="2"
     inkscape:zoom="0.088388348"
     inkscape:cx="-319.96825"
     inkscape:cy="985.89829"
     inkscape:document-units="mm"
     inkscape:current-layer="layer1"
     showgrid="false"
     inkscape:window-width="1440"
     inkscape:window-height="835"
     inkscape:window-x="1366"
     inkscape:window-y="0"
     inkscape:window-maximized="1" />
  <metadata
     id="metadata5">
    <rdf:RDF>
      <cc:Work
         rdf:about="">
        <dc:format>image/svg+xml</dc:format>
        <dc:type
           rdf:resource="http://purl.org/dc/dcmitype/StillImage" />
        <dc:title></dc:title>
      </cc:Work>
    </rdf:RDF>
  </metadata>
  <g
     inkscape:label="Layer 1"
     inkscape:groupmode="layer"
     id="layer1"
     transform="translate(-33.408496,-87.040332)">
    <g
       style="stroke-width:0.5831731"
       transform="matrix(1.7147568,0,0,1.7147568,-311.02058,18.347532)"
       id="g977" />
    <g
       id="g1148">
      <path
         inkscape:transform-center-y="-9.451707"
         inkscape:transform-center-x="70.103387"
         sodipodi:nodetypes="cccc"
         inkscape:connector-curvature="0"
         id="path862"
         d="m 100.02598,246.88219 2.14113,-31.73294 c 0,0 0.75249,-24.71029 -0.62625,-45.49321 -0.83653,-12.60993 -5.481467,-10.54486 -8.531297,-13.86647"
         style="fill:none;stroke:#4d984e;stroke-width:3.96499991;stroke-linecap:round;stroke-linejoin:round;stroke-miterlimit:4;stroke-dasharray:none;stroke-opacity:1" />
      <path
         inkscape:transform-center-y="-9.451707"
         inkscape:transform-center-x="70.103387"
         sodipodi:nodetypes="cccc"
         inkscape:connector-curvature="0"
         id="path864"
         d="m 100.02598,246.88219 2.14113,-31.73294 c 0,0 0.45864,-15.06088 0.004,-31.55576 -0.48131,-17.45278 10.10989,-14.96631 15.40717,-21.37833"
         style="fill:none;stroke:#4d984e;stroke-width:3.96499991;stroke-linecap:round;stroke-linejoin:round;stroke-miterlimit:4;stroke-dasharray:none;stroke-opacity:1" />
      <path
         inkscape:transform-center-y="-9.451707"
         inkscape:transform-center-x="70.103387"
         sodipodi:nodetypes="ccc"
         inkscape:connector-curvature="0"
         id="path994"
         d="m 100.02598,246.88219 7.62178,-30.59901 c 0,0 5.31205,-12.79285 17.28736,-21.06782"
         style="fill:none;stroke:#4d984e;stroke-width:3.96499991;stroke-linecap:round;stroke-linejoin:round;stroke-miterlimit:4;stroke-dasharray:none;stroke-opacity:1" />
      <path
         inkscape:transform-center-y="-9.451707"
         inkscape:transform-center-x="70.103387"
         sodipodi:nodetypes="ccc"
         inkscape:connector-curvature="0"
         id="path950"
         d="m 103.80574,246.50421 -4.905147,-22.4781 c 0,0 -2.896657,-8.57937 -17.609641,-12.241"
         style="fill:none;stroke:#4d984e;stroke-width:3.96499991;stroke-linecap:round;stroke-linejoin:round;stroke-miterlimit:4;stroke-dasharray:none;stroke-opacity:1" />
      <path
         style="fill:none;stroke:#4d984e;stroke-width:3.96499991;stroke-linecap:round;stroke-linejoin:round;stroke-miterlimit:4;stroke-dasharray:none;stroke-opacity:1"
         d="m 100.02598,246.88219 2.14113,-31.73294 c 0,0 2.5096,-63.79277 -2.16499,-74.10075"
         id="path936"
         inkscape:connector-curvature="0"
         sodipodi:nodetypes="ccc"
         inkscape:transform-center-x="70.103387"
         inkscape:transform-center-y="-9.451707" />
      <path
         inkscape:transform-center-y="-9.451707"
         inkscape:transform-center-x="70.103387"
         sodipodi:nodetypes="cccc"
         inkscape:connector-curvature="0"
         id="path860"
         d="m 100.02598,246.88219 2.14113,-31.73294 c 0,0 0.16093,-5.28464 0.19758,-13.02159 -9.736681,-10.45075 -22.880083,-15.88323 -28.631912,-22.14762"
         style="fill:none;stroke:#4d984e;stroke-width:3.96499991;stroke-linecap:round;stroke-linejoin:round;stroke-miterlimit:4;stroke-dasharray:none;stroke-opacity:1" />
      <path
         style="opacity:1;fill:#a56a58;fill-opacity:1;stroke:none;stroke-width:0.26458329;stroke-opacity:1"
         d="m 98.426789,232.89928 a 36.285709,33.167415 0 0 0 -35.991597,29.17497 9.6383924,4.6302085 0 0 0 -1.61696,-0.0708 9.6383924,4.6302085 0 0 0 -7.75508,1.88981 H 158.94506 a 8.6934526,3.4017854 0 0 0 -7.22385,-1.51206 8.6934526,3.4017854 0 0 0 -0.59376,0.008 21.922616,18.615326 0 0 0 -21.51755,-15.12724 21.922616,18.615326 0 0 0 -1.31,0.0398 36.285709,33.167415 0 0 0 -29.873111,-14.40274 z"
         id="path938"
         inkscape:connector-curvature="0" />
      <path
         sodipodi:nodetypes="scscs"
         inkscape:connector-curvature="0"
         id="path884-3"
         d="m 116.01206,124.29459 c 0.56837,12.1651 -7.23351,23.1936 -14.68245,24.2991 -5.523001,-1.30937 -12.290239,-17.28316 -11.744956,-24.26442 0.872313,-11.16818 5.046774,-34.262907 5.49369,-37.288938 7.773656,7.332626 20.159196,20.676748 20.933716,37.254258 z"
         style="opacity:1;fill:#80c56e;fill-opacity:1;stroke:none;stroke-width:0.26458329;stroke-opacity:1" />
      <path
         style="opacity:1;fill:#66ad66;fill-opacity:1;stroke:none;stroke-width:0.26458329;stroke-opacity:1"
         d="m 116.01206,124.29459 c 0.56837,12.1651 -7.5047,22.3931 -14.68245,24.2991 0.83951,-4.44538 4.46158,-7.60958 1.21157,-25.53048 -1.99893,-11.0224 -7.909752,-32.996847 -7.462836,-36.022878 7.773656,7.332626 20.159196,20.676748 20.933716,37.254258 z"
         id="path889-6"
         inkscape:connector-curvature="0"
         sodipodi:nodetypes="scccs" />
      <path
         sodipodi:nodetypes="scscs"
         inkscape:connector-curvature="0"
         id="path884-7"
         d="m 86.498027,136.80313 c 7.865247,5.26597 11.152497,15.23779 8.401417,20.40385 -3.37034,2.8466 -16.480186,-0.30528 -20.591191,-3.87193 -6.576527,-5.70569 -19.08075,-18.98604 -20.765374,-20.66359 8.174562,-1.46996 22.237085,-3.04436 32.955148,4.13167 z"
         style="opacity:1;fill:#80c56e;fill-opacity:1;stroke:none;stroke-width:0.26458329;stroke-opacity:1" />
      <path
         style="opacity:1;fill:#66ad66;fill-opacity:1;stroke:none;stroke-width:0.26458329;stroke-opacity:1"
         d="m 86.498027,136.80313 c 7.865247,5.26597 10.526917,15.03737 8.401417,20.40385 -2.39023,-2.57875 -2.69405,-6.30449 -15.395524,-12.55418 -7.812159,-3.84394 -24.276417,-10.30379 -25.961041,-11.98134 8.174562,-1.46996 22.237085,-3.04436 32.955148,4.13167 z"
         id="path889-5"
         inkscape:connector-curvature="0"
         sodipodi:nodetypes="scccs" />
      <path
         sodipodi:nodetypes="scscs"
         inkscape:connector-curvature="0"
         id="path884-35"
         d="m 74.299742,165.42796 c 6.797881,6.15547 8.544691,16.17715 5.180058,20.74181 -3.631605,2.25407 -15.75456,-2.61344 -19.193007,-6.61128 -5.500615,-6.39549 -15.616694,-20.88664 -16.995299,-22.73194 8.042967,-0.25789 21.744709,0.21327 31.008248,8.60141 z"
         style="opacity:1;fill:#80c56e;fill-opacity:1;stroke:none;stroke-width:0.26458329;stroke-opacity:1" />
      <path
         style="opacity:1;fill:#66ad66;fill-opacity:1;stroke:none;stroke-width:0.26458329;stroke-opacity:1"
         d="m 74.299742,165.42796 c 6.797881,6.15547 7.973246,15.89695 5.180058,20.74181 -1.928079,-2.80853 -1.694634,-6.42272 -12.989881,-14.20222 -6.947244,-4.78486 -21.81982,-13.2957 -23.198425,-15.141 8.042967,-0.25789 21.744709,0.21327 31.008248,8.60141 z"
         id="path889-62"
         inkscape:connector-curvature="0"
         sodipodi:nodetypes="scccs" />
      <path
         sodipodi:nodetypes="scscs"
         inkscape:connector-curvature="0"
         id="path884-9"
         d="m 76.141383,190.85476 c 10.888394,5.45486 16.691132,17.65425 14.011692,24.69196 -3.84362,4.17668 -21.086133,2.26545 -26.908458,-1.62504 -9.314178,-6.22376 -27.415436,-21.16156 -29.836121,-23.03153 10.198002,-3.19342 27.895155,-7.46876 42.732887,-0.0354 z"
         style="opacity:1;fill:#80c56e;fill-opacity:1;stroke:none;stroke-width:0.26458329;stroke-opacity:1" />
      <path
         style="opacity:1;fill:#66ad66;fill-opacity:1;stroke:none;stroke-width:0.26458329;stroke-opacity:1"
         d="m 76.141383,190.85476 c 10.888394,5.45486 15.860289,17.4992 14.011692,24.69196 -3.466607,-2.90669 -4.454669,-7.61362 -21.674996,-13.545 -10.591512,-3.64816 -32.648898,-9.2416 -35.069583,-11.11157 10.198002,-3.19342 27.895155,-7.46876 42.732887,-0.0354 z"
         id="path889-1"
         inkscape:connector-curvature="0"
         sodipodi:nodetypes="scccs" />
      <path
         sodipodi:nodetypes="scscs"
         inkscape:connector-curvature="0"
         id="path884-7-2"
         d="m 132.73382,167.2962 c -8.03493,5.00324 -18.47629,3.89812 -22.05361,-0.73431 -1.20844,-4.24288 7.05663,-14.8961 11.9985,-17.17629 7.90567,-3.64772 25.15372,-9.58304 27.3757,-10.42859 -2.02237,8.0557 -6.37126,21.52122 -17.32059,28.33919 z"
         style="opacity:1;fill:#80c56e;fill-opacity:1;stroke:none;stroke-width:0.26458329;stroke-opacity:1" />
      <path
         style="opacity:1;fill:#66ad66;fill-opacity:1;stroke:none;stroke-width:0.26458329;stroke-opacity:1"
         d="m 132.73382,167.2962 c -8.03493,5.00324 -18.0363,3.41034 -22.05361,-0.73431 3.33364,-1.11804 6.85461,0.13744 17.77535,-8.86941 6.71692,-5.53974 19.37687,-17.88992 21.59885,-18.73547 -2.02237,8.0557 -6.37126,21.52122 -17.32059,28.33919 z"
         id="path889-5-7"
         inkscape:connector-curvature="0"
         sodipodi:nodetypes="scccs" />
      <path
         sodipodi:nodetypes="scscs"
         inkscape:connector-curvature="0"
         id="path884-0"
         d="m 143.1007,199.83062 c -8.7008,8.52107 -22.12443,10.03873 -27.90738,5.21522 -2.6988,-4.99345 4.71865,-20.67588 10.29186,-24.91553 8.91568,-6.78233 28.93028,-19.03829 31.48613,-20.71883 -0.29849,10.68214 -2.01393,28.8074 -13.87061,40.41914 z"
         style="opacity:1;fill:#80c56e;fill-opacity:1;stroke:none;stroke-width:0.26458329;stroke-opacity:1" />
      <path
         style="opacity:1;fill:#66ad66;fill-opacity:1;stroke:none;stroke-width:0.26458329;stroke-opacity:1"
         d="m 143.1007,199.83062 c -8.7008,8.52107 -21.7075,9.30354 -27.90738,5.21522 3.87646,-2.33223 8.64877,-1.73503 19.86041,-16.08843 6.89582,-8.82818 19.36173,-27.86539 21.91758,-29.54593 -0.29849,10.68214 -2.01393,28.8074 -13.87061,40.41914 z"
         id="path889-9"
         inkscape:connector-curvature="0"
         sodipodi:nodetypes="scccs" />
      <path
         id="path940"
         d="m 95.719259,232.9229 c -15.229527,0.014 -31.450857,12.51004 -33.284067,29.15135 -0.44335,-0.0454 -2.48171,-0.0691 -2.93195,-0.0708 -2.54386,0.002 -4.9345,0.70365 -6.44009,1.88981 h 82.098218 c -0.6622,-1.50405 -0.3463,-0.92786 -0.6622,-1.50405 -3.03842,-8.50682 -11.95699,-11.81753 -23.86943,-10.60925 -0.53352,-10.87333 -4.99165,-18.84314 -14.910481,-18.85731 z"
         style="opacity:1;fill:#ba7d60;fill-opacity:1;stroke:none;stroke-width:0.26458329;stroke-opacity:1"
         inkscape:connector-curvature="0"
         sodipodi:nodetypes="ccccccccc" />
      <g
         id="g1066">
        <path
           style="opacity:0.99500002;fill:#b73747;fill-opacity:1;stroke:none;stroke-width:3.96499991;stroke-linecap:round;stroke-linejoin:round;stroke-miterlimit:4;stroke-dasharray:none;stroke-opacity:1"
           d="m 101.95124,151.23856 a 14.650292,13.283295 0 0 0 -0.72553,0.0336 c -0.14958,1.21022 -0.84246,2.1208 -1.681617,2.1208 h -4.16892 c -0.29611,0 -0.57411,-0.11332 -0.81661,-0.31315 a 14.650292,13.283295 0 0 0 -5.87032,5.83634 h 2.13131 c 0.46764,0 0.84419,1.3994 0.84419,3.13779 v 7.08587 c 0,1.73839 -0.37655,3.13779 -0.84419,3.13779 h -0.73958 a 14.650292,13.283295 0 0 0 11.871267,5.52783 14.650292,13.283295 0 0 0 14.65055,-13.28344 14.650292,13.283295 0 0 0 -6.10297,-10.76781 c -0.2931,0.35773 -0.66516,0.57258 -1.07163,0.57258 h -5.05267 c -0.94904,0 -1.71337,-1.16387 -1.71337,-2.60967 v -0.45578 a 14.650292,13.283295 0 0 0 -0.70991,-0.0227 z"
           id="path1402"
           inkscape:connector-curvature="0" />
        <path
           style="fill:#4d864e;fill-opacity:1;stroke-width:0.01542979"
           inkscape:connector-curvature="0"
           d="m 100.28626,148.36736 c -0.307807,0.11249 -0.591717,0.37888 -0.763467,0.70996 -0.15965,0.30782 -0.16565,0.31961 -0.18355,1.68663 l -0.0237,1.37882 -0.36104,-0.0475 c -0.20107,-0.0236 -0.91134,-0.0475 -1.57989,-0.0414 -1.34342,0.006 -1.92912,0.0946 -2.94117,0.44388 -0.63921,0.21891 -1.56235,0.66854 -1.80485,0.86992 -0.20712,0.17749 -0.34319,0.46172 -0.34319,0.72207 0,0.25459 0.19533,0.61532 0.42029,0.77528 0.23676,0.16569 0.50285,0.17174 1.53273,0.0296 0.81671,-0.11249 2.06519,-0.11249 2.27231,0.006 0.0768,0.0414 0.0415,0.0946 -0.19532,0.27213 -0.46746,0.36104 -1.36702,1.33135 -1.76343,1.91129 -0.41999,0.61533 -0.94099,1.61558 -0.99419,1.91734 -0.0237,0.1539 0,0.27819 0.10065,0.47352 0.18353,0.35498 0.45566,0.53247 0.82849,0.53247 0.34319,0 0.42605,-0.0414 0.93493,-0.44388 1.21916,-0.9824 2.63336,-1.66274 3.52083,-1.69842 l 0.35497,-0.0178 0.0353,1.27238 c 0.0353,1.3138 0.0593,1.62736 0.20713,2.6273 0.15964,1.10668 0.479267,2.142 0.792817,2.58589 0.18929,0.26034 0.55637,0.42604 0.86387,0.39066 0.3432,-0.0354 0.5857,-0.22496 0.88173,-0.68638 0.97031,-1.50309 1.5681,-3.43797 1.66879,-5.3792 0.0415,-0.82849 -0.0297,-0.76922 0.73384,-0.63316 1.18349,0.21892 2.05946,0.63921 2.98834,1.42629 0.55032,0.46746 1.02958,0.47925 1.44383,0.0532 0.20109,-0.20713 0.20713,-0.22497 0.20713,-0.69818 -0.007,-0.586 -0.22496,-1.27812 -0.62138,-1.94697 -0.27817,-0.46747 -1.03561,-1.28992 -1.50309,-1.63311 l -0.29602,-0.21891 0.23071,-0.0475 c 0.12998,-0.0236 0.87567,-0.0593 1.657,-0.0768 1.60378,-0.0414 1.80485,-0.0829 2.04735,-0.47352 0.15965,-0.26033 0.14216,-0.80491 -0.0353,-1.04136 -0.25428,-0.33714 -1.63916,-1.0592 -2.68656,-1.40844 -1.59169,-0.52674 -2.79302,-0.54457 -4.15398,-0.065 l -0.46748,0.16569 v -1.08278 c 0,-1.11244 -0.0532,-1.55631 -0.23676,-1.91734 -0.13598,-0.26035 -0.50889,-0.62138 -0.72781,-0.70423 -0.22436,-0.0892 -1.79245,-0.0774 -2.04101,0.0115 z"
           id="path1330" />
        <path
           style="fill:#b73747;fill-opacity:1;stroke-width:0.01542979"
           inkscape:connector-curvature="0"
           d="m 111.60645,154.95362 c -0.0593,0.11823 -0.25429,0.34319 -0.43208,0.50284 -0.38462,0.34924 -0.88171,0.52673 -1.50309,0.52673 h -0.4082 l 0.11815,0.17175 c 0.24856,0.3432 0.60354,1.17169 0.75141,1.75164 0.28391,1.10063 0.12432,1.89375 -0.48531,2.45586 -0.42031,0.39066 -0.84634,0.55636 -1.4142,0.55636 -0.5978,0 -0.94099,-0.14786 -1.58594,-0.68638 -0.49709,-0.41999 -0.9706,-0.69818 -1.48525,-0.87567 l -0.32535,-0.10643 -0.0353,0.3314 c -0.20712,1.79306 -0.89956,3.71614 -1.84053,5.14243 -0.54428,0.81671 -1.02958,1.10668 -1.85808,1.10668 -0.4203,0.006 -0.55637,-0.0236 -0.8403,-0.15392 -1.148097,-0.53247 -1.787017,-2.26627 -2.005917,-5.46778 -0.0415,-0.55032 -0.0768,-1.00599 -0.0828,-1.01778 -0.0297,-0.0354 -0.7635,0.35498 -1.1835,0.62712 -0.22495,0.14211 -0.62741,0.43208 -0.88774,0.63316 -0.7635,0.59174 -0.90531,0.65101 -1.59774,0.65101 -0.53247,0 -0.62138,-0.0178 -0.90531,-0.1657 -0.84634,-0.44388 -1.27811,-1.26633 -1.13026,-2.16589 0.0593,-0.39066 0.56816,-1.44987 1.01204,-2.10662 0.1775,-0.26034 0.33714,-0.50315 0.36103,-0.53853 0.0237,-0.0475 -0.0532,-0.0475 -0.27213,-0.0118 -0.40246,0.065 -0.8285,0.0118 -1.20133,-0.1539 -0.29601,-0.13605 -0.70996,-0.4853 -0.84028,-0.716 -0.065,-0.10645 -0.11815,-0.065 -0.73961,0.5621 -1.03563,1.05921 -1.76344,2.07699 -2.39659,3.34937 -1.42025,2.85136 -1.73985,5.89323 -0.9292,8.94053 0.5857,2.20731 1.95272,4.47359 3.68653,6.11275 4.33751,4.11286 10.823387,5.32597 16.521877,3.09507 1.97055,-0.76923 3.94111,-2.08879 5.33171,-3.56224 4.56249,-4.81678 4.88785,-11.85871 0.78104,-16.95972 -0.43784,-0.54457 -1.91734,-2.04162 -2.01774,-2.04162 -0.0238,0 -0.0947,0.0946 -0.15998,0.21318 z m -20.900817,5.88203 c 0.2307,0.18354 0.23675,0.34924 0.0415,1.04742 -0.10065,0.34924 -0.19534,0.82245 -0.21892,1.05316 -0.0532,0.65675 -0.20712,0.85813 -0.63921,0.85813 -0.31356,0 -0.50285,-0.22496 -0.50285,-0.59174 0,-0.75744 0.37282,-2.16589 0.63317,-2.36122 0.19533,-0.15389 0.49135,-0.15965 0.68639,-0.006 z m -0.50286,4.34931 c 0.14216,0.11824 0.1893,0.23071 0.26639,0.61533 0.10066,0.50285 0.35499,1.20132 0.56817,1.54452 0.16564,0.27818 0.15964,0.5621 -0.0178,0.7396 -0.19533,0.19533 -0.42029,0.2428 -0.65101,0.13032 -0.36103,-0.17175 -0.95852,-1.59199 -1.02383,-2.43803 -0.0353,-0.41424 -0.0297,-0.41999 0.15398,-0.57994 0.2425,-0.20138 0.47352,-0.20713 0.70422,-0.0118 z"
           id="path1332" />
        <ellipse
           transform="rotate(-32.384156)"
           ry="6.0854173"
           rx="7.4083338"
           cy="201.2424"
           cx="-0.58966613"
           id="path1353"
           style="opacity:0.99500002;fill:#9e2042;fill-opacity:0.70106764;stroke:none;stroke-width:3.96500039;stroke-linecap:round;stroke-linejoin:round;stroke-miterlimit:4;stroke-dasharray:none;stroke-opacity:1" />
      </g>
      <g
         id="g1083">
        <rect
           ry="2.6097362"
           rx="1.7008896"
           y="213.2394"
           x="102.14136"
           height="11.1489"
           width="5.6696248"
           id="rect949"
           style="opacity:0.99500002;fill:#ffffff;fill-opacity:1;stroke:none;stroke-width:3.96499991;stroke-linecap:round;stroke-linejoin:round;stroke-miterlimit:4;stroke-dasharray:none;stroke-opacity:1" />
        <path
           inkscape:connector-curvature="0"
           id="path1444"
           d="m 115.40436,205.56181 a 14.650292,13.283295 0 0 0 -0.72553,0.0336 c -0.14958,1.21021 -0.84246,2.1208 -1.68162,2.1208 h -4.16892 c -0.29611,0 -0.57411,-0.11333 -0.81661,-0.31316 a 14.650292,13.283295 0 0 0 -5.87032,5.83634 h 2.13131 c 0.46764,0 0.84419,1.3994 0.84419,3.13779 v 7.08587 c 0,1.7384 -0.37655,3.13779 -0.84419,3.13779 h -0.73958 a 14.650292,13.283295 0 0 0 11.87127,5.52783 14.650292,13.283295 0 0 0 14.65055,-13.28343 14.650292,13.283295 0 0 0 -6.10297,-10.76781 c -0.2931,0.35773 -0.66516,0.57257 -1.07163,0.57257 h -5.05267 c -0.94904,0 -1.71337,-1.16387 -1.71337,-2.60966 v -0.45578 a 14.650292,13.283295 0 0 0 -0.70991,-0.0227 z"
           style="opacity:0.99500002;fill:#b73747;fill-opacity:1;stroke:none;stroke-width:3.96499991;stroke-linecap:round;stroke-linejoin:round;stroke-miterlimit:4;stroke-dasharray:none;stroke-opacity:1" />
        <path
           id="path1446"
           d="m 113.73938,202.69061 c -0.30781,0.11249 -0.59172,0.37887 -0.76347,0.70996 -0.15965,0.30782 -0.16565,0.31961 -0.18355,1.68663 l -0.0237,1.37882 -0.36104,-0.0475 c -0.20107,-0.0236 -0.91134,-0.0475 -1.57989,-0.0414 -1.34342,0.006 -1.92912,0.0946 -2.94117,0.44388 -0.63921,0.21891 -1.56235,0.66854 -1.80485,0.86992 -0.20712,0.17749 -0.34319,0.46172 -0.34319,0.72207 0,0.25459 0.19533,0.61532 0.42029,0.77528 0.23676,0.16569 0.50285,0.17174 1.53273,0.0296 0.81671,-0.11249 2.06519,-0.11249 2.27231,0.006 0.0768,0.0414 0.0415,0.0946 -0.19532,0.27213 -0.46746,0.36104 -1.36702,1.33135 -1.76343,1.91129 -0.41999,0.61533 -0.94099,1.61558 -0.99419,1.91734 -0.0237,0.1539 0,0.27819 0.10065,0.47352 0.18353,0.35498 0.45566,0.53247 0.82849,0.53247 0.34319,0 0.42605,-0.0414 0.93493,-0.44388 1.21916,-0.9824 2.63336,-1.66274 3.52083,-1.69842 l 0.35497,-0.0178 0.0353,1.27238 c 0.0353,1.3138 0.0593,1.62736 0.20713,2.6273 0.15964,1.10668 0.47927,2.142 0.79282,2.58589 0.18929,0.26034 0.55637,0.42604 0.86387,0.39066 0.3432,-0.0354 0.5857,-0.22496 0.88173,-0.68638 0.97031,-1.50309 1.5681,-3.43797 1.66879,-5.3792 0.0415,-0.82849 -0.0297,-0.76923 0.73384,-0.63316 1.18349,0.21892 2.05946,0.63921 2.98834,1.42629 0.55032,0.46746 1.02958,0.47925 1.44383,0.0532 0.20109,-0.20713 0.20713,-0.22497 0.20713,-0.69818 -0.007,-0.586 -0.22496,-1.27812 -0.62138,-1.94697 -0.27817,-0.46747 -1.03561,-1.28992 -1.50309,-1.63311 l -0.29602,-0.21892 0.23071,-0.0475 c 0.12998,-0.0236 0.87567,-0.0593 1.657,-0.0768 1.60378,-0.0414 1.80485,-0.0829 2.04735,-0.47352 0.15965,-0.26034 0.14216,-0.80491 -0.0353,-1.04136 -0.25428,-0.33715 -1.63916,-1.05921 -2.68656,-1.40845 -1.59169,-0.52673 -2.79302,-0.54457 -4.15398,-0.065 l -0.46748,0.1657 v -1.08279 c 0,-1.11243 -0.0532,-1.55631 -0.23676,-1.91734 -0.13598,-0.26034 -0.50889,-0.62137 -0.72781,-0.70423 -0.22436,-0.0892 -1.79245,-0.0774 -2.04101,0.0115 z"
           inkscape:connector-curvature="0"
           style="fill:#4d864e;fill-opacity:1;stroke-width:0.01542979" />
        <path
           id="path1448"
           d="m 125.05957,209.27687 c -0.0593,0.11823 -0.25429,0.34319 -0.43208,0.50284 -0.38462,0.34924 -0.88171,0.52673 -1.50309,0.52673 h -0.4082 l 0.11815,0.17175 c 0.24856,0.34319 0.60354,1.17169 0.75141,1.75164 0.28391,1.10063 0.12432,1.89375 -0.48531,2.45586 -0.42031,0.39066 -0.84634,0.55636 -1.4142,0.55636 -0.5978,0 -0.94099,-0.14786 -1.58594,-0.68638 -0.49709,-0.41999 -0.9706,-0.69818 -1.48525,-0.87567 l -0.32535,-0.10643 -0.0353,0.3314 c -0.20712,1.79306 -0.89956,3.71614 -1.84053,5.14243 -0.54428,0.81671 -1.02958,1.10668 -1.85808,1.10668 -0.4203,0.006 -0.55637,-0.0236 -0.8403,-0.15392 -1.1481,-0.53247 -1.78702,-2.26627 -2.00592,-5.46778 -0.0415,-0.55032 -0.0768,-1.00599 -0.0828,-1.01778 -0.0297,-0.0354 -0.7635,0.35498 -1.1835,0.62712 -0.22495,0.14211 -0.62741,0.43208 -0.88774,0.63316 -0.7635,0.59174 -0.90531,0.65101 -1.59774,0.65101 -0.53247,0 -0.62138,-0.0178 -0.90531,-0.1657 -0.84634,-0.44388 -1.27811,-1.26633 -1.13026,-2.16589 0.0593,-0.39066 0.56816,-1.44987 1.01204,-2.10662 0.1775,-0.26034 0.33714,-0.50315 0.36103,-0.53853 0.0237,-0.0475 -0.0532,-0.0475 -0.27213,-0.0118 -0.40246,0.065 -0.8285,0.0118 -1.20133,-0.1539 -0.29601,-0.13606 -0.70996,-0.4853 -0.84028,-0.71601 -0.065,-0.10644 -0.11815,-0.065 -0.73961,0.56211 -1.03563,1.0592 -1.76344,2.07699 -2.39659,3.34937 -1.42025,2.85136 -1.73985,5.89322 -0.9292,8.94052 0.5857,2.20731 1.95272,4.47359 3.68653,6.11275 4.33751,4.11286 10.82339,5.32597 16.52188,3.09507 1.97055,-0.76923 3.94111,-2.08878 5.33171,-3.56224 4.56249,-4.81678 4.88785,-11.85871 0.78104,-16.95972 -0.43784,-0.54457 -1.91734,-2.04161 -2.01774,-2.04161 -0.0238,0 -0.0947,0.0946 -0.15998,0.21317 z m -20.90082,5.88203 c 0.2307,0.18354 0.23675,0.34924 0.0415,1.04742 -0.10065,0.34924 -0.19534,0.82245 -0.21892,1.05316 -0.0532,0.65675 -0.20712,0.85813 -0.63921,0.85813 -0.31356,0 -0.50285,-0.22497 -0.50285,-0.59174 0,-0.75744 0.37282,-2.16589 0.63317,-2.36122 0.19533,-0.1539 0.49135,-0.15965 0.68639,-0.006 z m -0.50286,4.34931 c 0.14216,0.11824 0.1893,0.23071 0.26639,0.61533 0.10066,0.50285 0.35499,1.20132 0.56817,1.54452 0.16564,0.27818 0.15964,0.5621 -0.0178,0.7396 -0.19533,0.19533 -0.42029,0.2428 -0.65101,0.13032 -0.36103,-0.17175 -0.95852,-1.59199 -1.02383,-2.43803 -0.0353,-0.41424 -0.0297,-0.41999 0.15398,-0.57994 0.2425,-0.20138 0.47352,-0.20713 0.70422,-0.0118 z"
           inkscape:connector-curvature="0"
           style="fill:#b73747;fill-opacity:1;stroke-width:0.01542979" />
        <ellipse
           style="opacity:0.99500002;fill:#a62643;fill-opacity:1;stroke:none;stroke-width:3.96500039;stroke-linecap:round;stroke-linejoin:round;stroke-miterlimit:4;stroke-dasharray:none;stroke-opacity:1"
           id="ellipse1450"
           cx="-18.324003"
           cy="254.32248"
           rx="7.4083338"
           ry="6.0854173"
           transform="rotate(-32.384156)" />
      </g>
      <g
         id="g1090">
        <rect
           style="opacity:0.99500002;fill:#ffffff;fill-opacity:1;stroke:none;stroke-width:3.96499991;stroke-linecap:round;stroke-linejoin:round;stroke-miterlimit:4;stroke-dasharray:none;stroke-opacity:1"
           id="rect939"
           width="5.6696248"
           height="11.1489"
           x="67.96759"
           y="195.50047"
           rx="1.7008896"
           ry="2.6097362" />
        <path
           style="opacity:0.99500002;fill:#b73747;fill-opacity:1;stroke:none;stroke-width:3.96499991;stroke-linecap:round;stroke-linejoin:round;stroke-miterlimit:4;stroke-dasharray:none;stroke-opacity:1"
           d="m 81.23059,187.82289 a 14.650292,13.283295 0 0 0 -0.72553,0.0336 c -0.14958,1.21021 -0.84246,2.1208 -1.68162,2.1208 h -4.16892 c -0.29611,0 -0.57411,-0.11333 -0.81661,-0.31316 a 14.650292,13.283295 0 0 0 -5.87032,5.83634 h 2.13131 c 0.46764,0 0.84419,1.3994 0.84419,3.13779 v 7.08587 c 0,1.7384 -0.37655,3.13779 -0.84419,3.13779 h -0.73958 a 14.650292,13.283295 0 0 0 11.87127,5.52783 14.650292,13.283295 0 0 0 14.65055,-13.28343 14.650292,13.283295 0 0 0 -6.10297,-10.76781 c -0.2931,0.35773 -0.66516,0.57257 -1.07163,0.57257 h -5.05267 c -0.94904,0 -1.71337,-1.16387 -1.71337,-2.60966 v -0.45578 a 14.650292,13.283295 0 0 0 -0.70991,-0.0227 z"
           id="path1454"
           inkscape:connector-curvature="0" />
        <path
           style="fill:#4d864e;fill-opacity:1;stroke-width:0.01542979"
           inkscape:connector-curvature="0"
           d="m 79.56561,184.95169 c -0.30781,0.11249 -0.59172,0.37887 -0.76347,0.70996 -0.15965,0.30782 -0.16565,0.31961 -0.18355,1.68663 l -0.0237,1.37882 -0.36104,-0.0475 c -0.20107,-0.0236 -0.91134,-0.0475 -1.57989,-0.0414 -1.34342,0.006 -1.92912,0.0946 -2.94117,0.44388 -0.63921,0.21891 -1.56235,0.66854 -1.80485,0.86992 -0.20712,0.17749 -0.34319,0.46172 -0.34319,0.72207 0,0.25459 0.19533,0.61532 0.42029,0.77528 0.23676,0.16569 0.50285,0.17174 1.53273,0.0296 0.81671,-0.11249 2.06519,-0.11249 2.27231,0.006 0.0768,0.0414 0.0415,0.0946 -0.19532,0.27213 -0.46746,0.36104 -1.36702,1.33135 -1.76343,1.91129 -0.41999,0.61533 -0.94099,1.61558 -0.99419,1.91734 -0.0237,0.1539 0,0.27819 0.10065,0.47352 0.18353,0.35498 0.45566,0.53247 0.82849,0.53247 0.34319,0 0.42605,-0.0414 0.93493,-0.44388 1.21916,-0.9824 2.63336,-1.66274 3.52083,-1.69842 l 0.35497,-0.0178 0.0353,1.27238 c 0.0353,1.3138 0.0593,1.62736 0.20713,2.6273 0.15964,1.10668 0.47927,2.142 0.79282,2.58589 0.18929,0.26034 0.55637,0.42604 0.86387,0.39066 0.3432,-0.0354 0.5857,-0.22496 0.88173,-0.68638 0.97031,-1.50309 1.5681,-3.43797 1.66879,-5.3792 0.0415,-0.82849 -0.0297,-0.76923 0.73384,-0.63316 1.18349,0.21892 2.05946,0.63921 2.98834,1.42629 0.55032,0.46746 1.02958,0.47925 1.44383,0.0532 0.20109,-0.20713 0.20713,-0.22497 0.20713,-0.69818 -0.007,-0.586 -0.22496,-1.27812 -0.62138,-1.94697 -0.27817,-0.46747 -1.03561,-1.28992 -1.50309,-1.63311 l -0.29602,-0.21892 0.23071,-0.0475 c 0.12998,-0.0236 0.87567,-0.0593 1.657,-0.0768 1.60378,-0.0414 1.80485,-0.0829 2.04735,-0.47352 0.15965,-0.26034 0.14216,-0.80491 -0.0353,-1.04136 -0.25428,-0.33715 -1.63916,-1.05921 -2.68656,-1.40845 -1.59169,-0.52673 -2.79302,-0.54457 -4.15398,-0.065 l -0.46748,0.1657 v -1.08279 c 0,-1.11243 -0.0532,-1.55631 -0.23676,-1.91734 -0.13598,-0.26034 -0.50889,-0.62137 -0.72781,-0.70423 -0.22436,-0.0892 -1.79245,-0.0774 -2.04101,0.0115 z"
           id="path1456" />
        <path
           style="fill:#b73747;fill-opacity:1;stroke-width:0.01542979"
           inkscape:connector-curvature="0"
           d="m 90.8858,191.53795 c -0.0593,0.11823 -0.25429,0.34319 -0.43208,0.50284 -0.38462,0.34924 -0.88171,0.52673 -1.50309,0.52673 h -0.4082 l 0.11815,0.17175 c 0.24856,0.34319 0.60354,1.17169 0.75141,1.75164 0.28391,1.10063 0.12432,1.89375 -0.48531,2.45586 -0.42031,0.39066 -0.84634,0.55636 -1.4142,0.55636 -0.5978,0 -0.94099,-0.14786 -1.58594,-0.68638 -0.49709,-0.41999 -0.9706,-0.69818 -1.48525,-0.87567 l -0.32535,-0.10643 -0.0353,0.3314 c -0.20712,1.79306 -0.89956,3.71614 -1.84053,5.14243 -0.54428,0.81671 -1.02958,1.10668 -1.85808,1.10668 -0.4203,0.006 -0.55637,-0.0236 -0.8403,-0.15392 -1.1481,-0.53247 -1.78702,-2.26627 -2.00592,-5.46778 -0.0415,-0.55032 -0.0768,-1.00599 -0.0828,-1.01778 -0.0297,-0.0354 -0.7635,0.35498 -1.1835,0.62712 -0.22495,0.14211 -0.62741,0.43208 -0.88774,0.63316 -0.7635,0.59174 -0.90531,0.65101 -1.59774,0.65101 -0.53247,0 -0.62138,-0.0178 -0.90531,-0.1657 -0.84634,-0.44388 -1.27811,-1.26633 -1.13026,-2.16589 0.0593,-0.39066 0.56816,-1.44987 1.01204,-2.10662 0.1775,-0.26034 0.33714,-0.50315 0.36103,-0.53853 0.0237,-0.0475 -0.0532,-0.0475 -0.27213,-0.0118 -0.40246,0.065 -0.8285,0.0118 -1.20133,-0.1539 -0.29601,-0.13606 -0.70996,-0.4853 -0.84028,-0.71601 -0.065,-0.10644 -0.11815,-0.065 -0.73961,0.56211 -1.03563,1.0592 -1.76344,2.07699 -2.39659,3.34937 -1.42025,2.85136 -1.73985,5.89322 -0.9292,8.94052 0.5857,2.20731 1.95272,4.47359 3.68653,6.11275 4.33751,4.11286 10.82339,5.32597 16.52188,3.09507 1.97055,-0.76923 3.94111,-2.08878 5.33171,-3.56224 4.56249,-4.81678 4.88785,-11.85871 0.78104,-16.95972 -0.43784,-0.54457 -1.91734,-2.04161 -2.01774,-2.04161 -0.0238,0 -0.0947,0.0946 -0.15998,0.21317 z m -20.90082,5.88203 c 0.2307,0.18354 0.23675,0.34924 0.0415,1.04742 -0.10065,0.34924 -0.19534,0.82245 -0.21892,1.05316 -0.0532,0.65675 -0.20712,0.85813 -0.63921,0.85813 -0.31356,0 -0.50285,-0.22497 -0.50285,-0.59174 0,-0.75744 0.37282,-2.16589 0.63317,-2.36122 0.19533,-0.1539 0.49135,-0.15965 0.68639,-0.006 z m -0.50286,4.34931 c 0.14216,0.11824 0.1893,0.23071 0.26639,0.61533 0.10066,0.50285 0.35499,1.20132 0.56817,1.54452 0.16564,0.27818 0.15964,0.5621 -0.0178,0.7396 -0.19533,0.19533 -0.42029,0.2428 -0.65101,0.13032 -0.36103,-0.17175 -0.95852,-1.59199 -1.02383,-2.43803 -0.0353,-0.41424 -0.0297,-0.41999 0.15398,-0.57994 0.2425,-0.20138 0.47352,-0.20713 0.70422,-0.0118 z"
           id="path1458" />
        <ellipse
           transform="rotate(-32.384156)"
           ry="6.0854173"
           rx="7.4083338"
           cy="221.03915"
           cx="-37.682079"
           id="ellipse1460"
           style="opacity:0.99500002;fill:#a62643;fill-opacity:1;stroke:none;stroke-width:3.96500039;stroke-linecap:round;stroke-linejoin:round;stroke-miterlimit:4;stroke-dasharray:none;stroke-opacity:1" />
      </g>
    </g>
  </g>
</svg>
