<?xml version="1.0" encoding="UTF-8" standalone="no"?>
<!-- Created with Inkscape (http://www.inkscape.org/) -->

<svg
   xmlns:dc="http://purl.org/dc/elements/1.1/"
   xmlns:cc="http://creativecommons.org/ns#"
   xmlns:rdf="http://www.w3.org/1999/02/22-rdf-syntax-ns#"
   xmlns:svg="http://www.w3.org/2000/svg"
   xmlns="http://www.w3.org/2000/svg"
   xmlns:sodipodi="http://sodipodi.sourceforge.net/DTD/sodipodi-0.dtd"
   xmlns:inkscape="http://www.inkscape.org/namespaces/inkscape"
   width="125.53657mm"
   height="176.85292mm"
   viewBox="0 0 125.53657 176.85292"
   version="1.1"
   id="svg8"
   sodipodi:docname="tomato2.svg"
   inkscape:version="0.92.5 (2060ec1f9f, 2020-04-08)">
  <defs
     id="defs2" />
  <sodipodi:namedview
     id="base"
     pagecolor="#ffffff"
     bordercolor="#666666"
     borderopacity="1.0"
     inkscape:pageopacity="0.0"
     inkscape:pageshadow="2"
     inkscape:zoom="0.0625"
     inkscape:cx="-1830.0622"
     inkscape:cy="-2175.147"
     inkscape:document-units="mm"
     inkscape:current-layer="layer1"
     showgrid="false"
     inkscape:window-width="1440"
     inkscape:window-height="835"
     inkscape:window-x="1366"
     inkscape:window-y="0"
     inkscape:window-maximized="1" />
  <metadata
     id="metadata5">
    <rdf:RDF>
      <cc:Work
         rdf:about="">
        <dc:format>image/svg+xml</dc:format>
        <dc:type
           rdf:resource="http://purl.org/dc/dcmitype/StillImage" />
        <dc:title></dc:title>
      </cc:Work>
    </rdf:RDF>
  </metadata>
  <g
     inkscape:label="Layer 1"
     inkscape:groupmode="layer"
     id="layer1"
     transform="translate(-33.408496,-87.040332)">
    <g
       id="g1381"
       transform="translate(-131.70096,357.77655)">
      <path
         style="fill:none;stroke:#4d984e;stroke-width:3.96499991;stroke-linecap:round;stroke-linejoin:round;stroke-miterlimit:4;stroke-dasharray:none;stroke-opacity:1"
         d="m 231.72694,-110.89436 2.14113,-31.73294 c 0,0 0.0528,-12.38801 8.22936,-23.82993"
         id="path1011"
         inkscape:connector-curvature="0"
         sodipodi:nodetypes="ccc"
         inkscape:transform-center-x="70.103387"
         inkscape:transform-center-y="-9.451707" />
      <path
         style="fill:none;stroke:#4d984e;stroke-width:3.96499991;stroke-linecap:round;stroke-linejoin:round;stroke-miterlimit:4;stroke-dasharray:none;stroke-opacity:1"
         d="m 231.72694,-110.89436 1.14247,-23.99 c 0,0 -2.51868,-11.22521 -19.8775,-12.61898"
         id="path1013"
         inkscape:connector-curvature="0"
         sodipodi:nodetypes="ccc"
         inkscape:transform-center-x="70.103387"
         inkscape:transform-center-y="-9.451707" />
      <path
         inkscape:transform-center-y="-9.451707"
         inkscape:transform-center-x="70.103387"
         sodipodi:nodetypes="ccc"
         inkscape:connector-curvature="0"
         id="path1015"
         d="m 231.72694,-110.89436 2.14113,-31.73294 c 0,0 -11.6645,-37.71241 -19.74088,-46.5085"
         style="fill:none;stroke:#4d984e;stroke-width:3.96499991;stroke-linecap:round;stroke-linejoin:round;stroke-miterlimit:4;stroke-dasharray:none;stroke-opacity:1" />
      <path
         inkscape:connector-curvature="0"
         id="path1017"
         d="m 230.12775,-124.87727 a 36.285709,33.167415 0 0 0 -35.9916,29.17497 9.6383924,4.6302085 0 0 0 -1.61696,-0.0708 9.6383924,4.6302085 0 0 0 -7.75508,1.88981 h 105.88191 a 8.6934526,3.4017854 0 0 0 -7.22385,-1.51206 8.6934526,3.4017854 0 0 0 -0.59376,0.008 21.922616,18.615326 0 0 0 -21.51755,-15.12724 21.922616,18.615326 0 0 0 -1.31,0.0398 36.285709,33.167415 0 0 0 -29.87311,-14.40274 z"
         style="opacity:1;fill:#a56a58;fill-opacity:1;stroke:none;stroke-width:0.26458329;stroke-opacity:1" />
      <path
         sodipodi:nodetypes="ccccccccc"
         inkscape:connector-curvature="0"
         style="opacity:1;fill:#ba7d60;fill-opacity:1;stroke:none;stroke-width:0.26458329;stroke-opacity:1"
         d="m 227.42022,-124.85365 c -15.22953,0.014 -31.45086,12.51004 -33.28407,29.15135 -0.44335,-0.0454 -2.48171,-0.0691 -2.93195,-0.0708 -2.54386,0.002 -4.9345,0.70365 -6.44009,1.88981 h 82.09822 c -0.6622,-1.50405 -0.3463,-0.92786 -0.6622,-1.50405 -3.03842,-8.50682 -11.95699,-11.81753 -23.86943,-10.60925 -0.53352,-10.87333 -4.99165,-18.84314 -14.91048,-18.85731 z"
         id="path1019" />
      <g
         transform="rotate(-33.741541,-312.97447,-207.39062)"
         id="g1025">
        <path
           sodipodi:nodetypes="scscs"
           inkscape:connector-curvature="0"
           id="path1021"
           d="m 128.95339,85.141725 c 0.5089,12.167724 -7.34679,23.157955 -14.80104,24.227035 -5.51654,-1.33635 -12.20562,-17.343013 -11.62622,-24.321529 0.92689,-11.163784 5.21419,-34.237839 5.67588,-37.261648 7.73773,7.370534 20.0579,20.775053 20.75138,37.356142 z"
           style="opacity:1;fill:#80c56e;fill-opacity:1;stroke:none;stroke-width:0.26458329;stroke-opacity:1" />
        <path
           style="opacity:1;fill:#66ad66;fill-opacity:1;stroke:none;stroke-width:0.26458329;stroke-opacity:1"
           d="m 128.95339,85.141725 c 0.5089,12.167724 -7.61406,22.356155 -14.80104,24.227035 0.86123,-4.44122 4.49872,-7.58768 1.33635,-25.524242 -1.94504,-11.032044 -7.74838,-33.035126 -7.28669,-36.058935 7.73773,7.370534 20.0579,20.775053 20.75138,37.356142 z"
           id="path1023"
           inkscape:connector-curvature="0"
           sodipodi:nodetypes="scccs" />
      </g>
      <g
         transform="translate(121.01017,-263.69768)"
         id="g1033">
        <g
           style="stroke-width:1.18308377"
           transform="matrix(0.36242899,-0.76360365,0.76360365,0.36242899,-18.597281,152.07359)"
           id="g1031">
          <path
             style="opacity:1;fill:#80c56e;fill-opacity:1;stroke:none;stroke-width:0.31302419;stroke-opacity:1"
             d="m 110.12594,86.27915 c 0.5089,12.16772 -7.34679,23.15795 -14.80104,24.22703 -5.51654,-1.33634 -12.20562,-17.34301 -11.62622,-24.32152 0.92689,-11.16379 5.21419,-34.237845 5.67588,-37.261654 7.73773,7.370534 20.0579,20.775053 20.75138,37.356144 z"
             id="path1027"
             inkscape:connector-curvature="0"
             sodipodi:nodetypes="scscs" />
          <path
             sodipodi:nodetypes="sccccs"
             inkscape:connector-curvature="0"
             id="path1029"
             d="m 113.37831,83.745501 c 0.53665,20.569379 -10.86643,24.889789 -18.05341,26.760679 0.86123,-4.44122 4.49872,-7.58767 1.33635,-25.52424 -1.94504,-11.032043 -7.74838,-33.035125 -7.28669,-36.058934 3.821219,3.639883 2.905118,5.77255 14.4603,13.746792 5.02948,5.753347 9.32437,12.678578 9.54345,21.075703 z"
             style="opacity:1;fill:#66ad66;fill-opacity:1;stroke:none;stroke-width:0.31302419;stroke-opacity:1" />
        </g>
      </g>
      <path
         sodipodi:nodetypes="scsccs"
         inkscape:connector-curvature="0"
         id="path1035"
         d="m 256.51095,-160.78551 c -7.34055,3.60148 -6.4066,2.85466 -19.58995,2.63352 -3.3466,-4.58457 -1.30024,-22.43156 1.49851,-26.69675 9.9176,-15.11407 15.11001,-18.114 44.15812,-18.2335 -5.9891,11.82627 -6.35843,16.7168 -10.40945,25.97747 -2.62515,3.46846 -11.53256,14.29559 -15.65723,16.31926 z"
         style="opacity:1;fill:#80c56e;fill-opacity:1;stroke:none;stroke-width:0.26458329;stroke-opacity:1" />
      <path
         style="opacity:1;fill:#66ad66;fill-opacity:1;stroke:none;stroke-width:0.26458329;stroke-opacity:1"
         d="m 256.51095,-160.78551 c -7.34055,3.60148 -6.4066,2.85466 -19.58995,2.63352 8.6011,-30.93209 37.5162,-31.51855 45.65663,-44.93025 -5.9891,11.82627 -6.35843,16.7168 -10.40945,25.97747 -2.62515,3.46846 -11.53256,14.29559 -15.65723,16.31926 z"
         id="path1037"
         inkscape:connector-curvature="0"
         sodipodi:nodetypes="scccs" />
    </g>
    <g
       style="stroke-width:0.5831731"
       transform="matrix(1.7147568,0,0,1.7147568,-311.02058,18.347532)"
       id="g977" />
  </g>
</svg>
