<?xml version="1.0" encoding="UTF-8" standalone="no"?>
<!-- Created with Inkscape (http://www.inkscape.org/) -->

<svg
   xmlns:dc="http://purl.org/dc/elements/1.1/"
   xmlns:cc="http://creativecommons.org/ns#"
   xmlns:rdf="http://www.w3.org/1999/02/22-rdf-syntax-ns#"
   xmlns:svg="http://www.w3.org/2000/svg"
   xmlns="http://www.w3.org/2000/svg"
   xmlns:sodipodi="http://sodipodi.sourceforge.net/DTD/sodipodi-0.dtd"
   xmlns:inkscape="http://www.inkscape.org/namespaces/inkscape"
   width="125.53657mm"
   height="176.85292mm"
   viewBox="0 0 125.53657 176.85292"
   version="1.1"
   id="svg8"
   sodipodi:docname="tomato1.svg"
   inkscape:version="0.92.5 (2060ec1f9f, 2020-04-08)">
  <defs
     id="defs2" />
  <sodipodi:namedview
     id="base"
     pagecolor="#ffffff"
     bordercolor="#666666"
     borderopacity="1.0"
     inkscape:pageopacity="0.0"
     inkscape:pageshadow="2"
     inkscape:zoom="0.125"
     inkscape:cx="1263.7239"
     inkscape:cy="-521.5285"
     inkscape:document-units="mm"
     inkscape:current-layer="layer1"
     showgrid="false"
     inkscape:window-width="1440"
     inkscape:window-height="835"
     inkscape:window-x="1366"
     inkscape:window-y="0"
     inkscape:window-maximized="1" />
  <metadata
     id="metadata5">
    <rdf:RDF>
      <cc:Work
         rdf:about="">
        <dc:format>image/svg+xml</dc:format>
        <dc:type
           rdf:resource="http://purl.org/dc/dcmitype/StillImage" />
        <dc:title></dc:title>
      </cc:Work>
    </rdf:RDF>
  </metadata>
  <g
     inkscape:label="Layer 1"
     inkscape:groupmode="layer"
     id="layer1"
     transform="translate(-33.408496,-87.040332)">
    <g
       id="g1412"
       transform="translate(5.18422,355.63839)">
      <path
         style="fill:none;stroke:#4d984e;stroke-width:3.96499991;stroke-linecap:round;stroke-linejoin:round;stroke-miterlimit:4;stroke-dasharray:none;stroke-opacity:1"
         d="m 94.84176,-108.7562 1.14247,-23.99 c 0,0 -2.51868,-11.22521 -19.877497,-12.61898"
         id="path974"
         inkscape:connector-curvature="0"
         sodipodi:nodetypes="ccc"
         inkscape:transform-center-x="70.103387"
         inkscape:transform-center-y="-9.451707" />
      <path
         inkscape:transform-center-y="-9.451707"
         inkscape:transform-center-x="70.103387"
         sodipodi:nodetypes="ccc"
         inkscape:connector-curvature="0"
         id="path976"
         d="m 94.84176,-108.7562 2.14113,-31.73294 c 0,0 0.43074,-24.86122 -2.73195,-34.79123"
         style="fill:none;stroke:#4d984e;stroke-width:3.96499991;stroke-linecap:round;stroke-linejoin:round;stroke-miterlimit:4;stroke-dasharray:none;stroke-opacity:1" />
      <path
         inkscape:connector-curvature="0"
         id="path978"
         d="m 93.24257,-122.73911 a 36.285709,33.167415 0 0 0 -35.991597,29.174966 9.6383924,4.6302085 0 0 0 -1.61696,-0.0708 9.6383924,4.6302085 0 0 0 -7.75508,1.88981 H 153.76084 a 8.6934526,3.4017854 0 0 0 -7.22385,-1.51206 8.6934526,3.4017854 0 0 0 -0.59376,0.008 21.922616,18.615326 0 0 0 -21.51755,-15.127236 21.922616,18.615326 0 0 0 -1.31,0.0398 36.285709,33.167415 0 0 0 -29.87311,-14.40274 z"
         style="opacity:1;fill:#a56a58;fill-opacity:1;stroke:none;stroke-width:0.26458329;stroke-opacity:1" />
      <path
         sodipodi:nodetypes="ccccccccc"
         inkscape:connector-curvature="0"
         style="opacity:1;fill:#ba7d60;fill-opacity:1;stroke:none;stroke-width:0.26458329;stroke-opacity:1"
         d="m 90.53504,-122.71549 c -15.229527,0.014 -31.450857,12.51004 -33.284067,29.151346 -0.44335,-0.0454 -2.48171,-0.0691 -2.93195,-0.0708 -2.54386,0.002 -4.9345,0.70365 -6.44009,1.88981 h 82.098217 c -0.6622,-1.50405 -0.3463,-0.92786 -0.6622,-1.50405 -3.03842,-8.506816 -11.95699,-11.817526 -23.86943,-10.609246 -0.53352,-10.87333 -4.99165,-18.84314 -14.91048,-18.85731 z"
         id="path980" />
      <g
         transform="rotate(12.546951,1291.7032,-100.54446)"
         id="g986">
        <path
           sodipodi:nodetypes="scscs"
           inkscape:connector-curvature="0"
           id="path982"
           d="m 128.95339,85.141725 c 0.5089,12.167724 -7.34679,23.157955 -14.80104,24.227035 -5.51654,-1.33635 -12.20562,-17.343013 -11.62622,-24.321529 0.92689,-11.163784 5.21419,-34.237839 5.67588,-37.261648 7.73773,7.370534 20.0579,20.775053 20.75138,37.356142 z"
           style="opacity:1;fill:#80c56e;fill-opacity:1;stroke:none;stroke-width:0.26458329;stroke-opacity:1" />
        <path
           style="opacity:1;fill:#66ad66;fill-opacity:1;stroke:none;stroke-width:0.26458329;stroke-opacity:1"
           d="m 128.95339,85.141725 c 0.5089,12.167724 -7.61406,22.356155 -14.80104,24.227035 0.86123,-4.44122 4.49872,-7.58768 1.33635,-25.524242 -1.94504,-11.032044 -7.74838,-33.035126 -7.28669,-36.058935 7.73773,7.370534 20.0579,20.775053 20.75138,37.356142 z"
           id="path984"
           inkscape:connector-curvature="0"
           sodipodi:nodetypes="scccs" />
      </g>
      <g
         id="g992"
         transform="matrix(0.36242899,-0.76360365,0.76360365,0.36242899,-34.472281,-109.48593)"
         style="stroke-width:1.18308377">
        <path
           sodipodi:nodetypes="scscs"
           inkscape:connector-curvature="0"
           id="path988"
           d="m 110.12594,86.27915 c 0.5089,12.16772 -7.34679,23.15795 -14.80104,24.22703 -5.51654,-1.33634 -12.20562,-17.34301 -11.62622,-24.32152 0.92689,-11.16379 5.21419,-34.237845 5.67588,-37.261654 7.73773,7.370534 20.0579,20.775053 20.75138,37.356144 z"
           style="opacity:1;fill:#80c56e;fill-opacity:1;stroke:none;stroke-width:0.31302419;stroke-opacity:1" />
        <path
           style="opacity:1;fill:#66ad66;fill-opacity:1;stroke:none;stroke-width:0.31302419;stroke-opacity:1"
           d="m 110.12594,86.27915 c 0.5089,12.16772 -7.61406,22.35614 -14.80104,24.22703 0.86123,-4.44122 4.49872,-7.58767 1.33635,-25.52424 -1.94504,-11.032043 -7.74838,-33.035125 -7.28669,-36.058934 7.73773,7.370534 20.0579,20.775053 20.75138,37.356144 z"
           id="path990"
           inkscape:connector-curvature="0"
           sodipodi:nodetypes="scccs" />
      </g>
    </g>
    <g
       style="stroke-width:0.5831731"
       transform="matrix(1.7147568,0,0,1.7147568,-311.02058,18.347532)"
       id="g977" />
  </g>
</svg>
