<?xml version="1.0" encoding="UTF-8" standalone="no"?>
<!-- Created with Inkscape (http://www.inkscape.org/) -->

<svg
   xmlns:dc="http://purl.org/dc/elements/1.1/"
   xmlns:cc="http://creativecommons.org/ns#"
   xmlns:rdf="http://www.w3.org/1999/02/22-rdf-syntax-ns#"
   xmlns:svg="http://www.w3.org/2000/svg"
   xmlns="http://www.w3.org/2000/svg"
   xmlns:sodipodi="http://sodipodi.sourceforge.net/DTD/sodipodi-0.dtd"
   xmlns:inkscape="http://www.inkscape.org/namespaces/inkscape"
   width="125.53657mm"
   height="176.85292mm"
   viewBox="0 0 125.53657 176.85292"
   version="1.1"
   id="svg8"
   sodipodi:docname="tomato0.svg"
   inkscape:version="0.92.5 (2060ec1f9f, 2020-04-08)">
  <defs
     id="defs2" />
  <sodipodi:namedview
     id="base"
     pagecolor="#ffffff"
     bordercolor="#666666"
     borderopacity="1.0"
     inkscape:pageopacity="0.0"
     inkscape:pageshadow="2"
     inkscape:zoom="0.5"
     inkscape:cx="185.41018"
     inkscape:cy="78.738224"
     inkscape:document-units="mm"
     inkscape:current-layer="layer1"
     showgrid="false"
     inkscape:window-width="1440"
     inkscape:window-height="835"
     inkscape:window-x="1366"
     inkscape:window-y="0"
     inkscape:window-maximized="1" />
  <metadata
     id="metadata5">
    <rdf:RDF>
      <cc:Work
         rdf:about="">
        <dc:format>image/svg+xml</dc:format>
        <dc:type
           rdf:resource="http://purl.org/dc/dcmitype/StillImage" />
        <dc:title></dc:title>
      </cc:Work>
    </rdf:RDF>
  </metadata>
  <g
     inkscape:label="Layer 1"
     inkscape:groupmode="layer"
     id="layer1"
     transform="translate(-33.408496,-87.040332)">
    <g
       id="g1419"
       transform="translate(128.09785,355.26391)">
      <path
         inkscape:transform-center-y="-9.451707"
         inkscape:transform-center-x="70.103387"
         sodipodi:nodetypes="ccc"
         inkscape:connector-curvature="0"
         id="path896"
         d="m -28.071868,-108.38172 2.14113,-31.73294 c 0,0 0.43074,-24.86122 -2.73195,-34.79123"
         style="fill:none;stroke:#4d984e;stroke-width:3.96499991;stroke-linecap:round;stroke-linejoin:round;stroke-miterlimit:4;stroke-dasharray:none;stroke-opacity:1" />
      <path
         inkscape:connector-curvature="0"
         id="path837"
         d="m -29.671058,-122.36463 a 36.285709,33.167415 0 0 0 -35.9916,29.174969 9.6383924,4.6302085 0 0 0 -1.61696,-0.0708 9.6383924,4.6302085 0 0 0 -7.75508,1.88981 h 105.88191 a 8.6934526,3.4017854 0 0 0 -7.22385,-1.51206 8.6934526,3.4017854 0 0 0 -0.59376,0.008 21.922616,18.615326 0 0 0 -21.5175496,-15.127239 21.922616,18.615326 0 0 0 -1.31000002,0.0398 36.285709,33.167415 0 0 0 -29.87311038,-14.40274 z"
         style="opacity:1;fill:#a56a58;fill-opacity:1;stroke:none;stroke-width:0.26458329;stroke-opacity:1" />
      <path
         sodipodi:nodetypes="ccccccccc"
         inkscape:connector-curvature="0"
         style="opacity:1;fill:#ba7d60;fill-opacity:1;stroke:none;stroke-width:0.26458329;stroke-opacity:1"
         d="m -32.378588,-122.34101 c -15.229525,0.014 -31.45086,12.51004 -33.28407,29.151349 -0.44335,-0.0454 -2.48171,-0.0691 -2.93195,-0.0708 -2.54386,0.002 -4.9345,0.70365 -6.44009,1.88981 H 7.0635224 c -0.6622,-1.50405 -0.3463,-0.92786 -0.6622,-1.50405 -3.03842,-8.506819 -11.95699,-11.817529 -23.8694304,-10.609249 -0.53352,-10.87333 -4.99165,-18.84314 -14.91048,-18.85731 z"
         id="path874" />
      <path
         style="opacity:1;fill:#80c56e;fill-opacity:1;stroke:none;stroke-width:0.26458329;stroke-opacity:1"
         d="m -12.896568,-158.18229 c 1.02968,9.594 -6.34798,18.54122 -13.74959,19.63815 -5.56872,-0.86873 -13.97547,-13.4378 -12.65746,-18.81771 1.95969,-7.99918 3.74268,-27.22095 4.07441,-29.62508 8.04637,5.55988 20.92947,15.73078 22.33264,28.80464 z"
         id="path898"
         inkscape:connector-curvature="0"
         sodipodi:nodetypes="scscs" />
      <path
         sodipodi:nodetypes="scccs"
         inkscape:connector-curvature="0"
         id="path900"
         d="m -12.896568,-158.18229 c 1.02968,9.594 -6.64935,17.91693 -13.74959,19.63815 0.67018,-3.53727 4.16954,-6.14585 0.24168,-20.20677 -2.41585,-8.64829 -9.15646,-25.83189 -8.82473,-28.23602 8.04637,5.55988 20.92947,15.73078 22.33264,28.80464 z"
         style="opacity:1;fill:#66ad66;fill-opacity:1;stroke:none;stroke-width:0.26458329;stroke-opacity:1" />
    </g>
    <g
       style="stroke-width:0.5831731"
       transform="matrix(1.7147568,0,0,1.7147568,-311.02058,18.347532)"
       id="g977" />
  </g>
</svg>
